Coordinates
version=1
nRows=29
nColumns=24
inDegrees=yes

Units are S.I. units (second, meters, Newtons, ...)
Angles are in degrees.

endheader
time	pelvis_tilt	pelvis_list	pelvis_rotation	pelvis_tx	pelvis_ty	pelvis_tz	hip_flexion_r	hip_adduction_r	hip_rotation_r	knee_angle_r	ankle_angle_r	subtalar_angle_r	mtp_angle_r	hip_flexion_l	hip_adduction_l	hip_rotation_l	knee_angle_l	ankle_angle_l	subtalar_angle_l	mtp_angle_l	lumbar_extension	lumbar_bending	lumbar_rotation
      1.02516667	     -1.94307366	     -2.50783701	     -4.67340994	     -0.11548155	      0.88109584	      0.32812757	    -15.75171445	      6.92939513	     -0.15340353	     -8.71568996	     20.35228668	     12.12668616	     11.62331213	     29.47549031	     -3.40050294	    -10.98684054	     -4.94059077	      4.97116497	     -1.68687804	      0.93943668	     -6.25473116	      1.95077543	     11.62698013
      1.02933333	     -1.95647566	     -2.39090723	     -4.85452863	     -0.10966180	      0.88015587	      0.32823974	    -15.82616932	      6.70693150	     -0.07212078	     -9.34387329	     20.45090943	     12.21153410	     14.54838136	     29.50701410	     -3.31723856	    -10.79436648	     -5.35232068	      4.78704461	     -1.74824447	      2.16748834	     -6.22466921	      1.72812987	     11.66015622
      1.03350000	     -1.99533758	     -2.27768986	     -5.03620620	     -0.10383067	      0.87924056	      0.32836229	    -15.85346625	      6.49377562	      0.04867107	    -10.01667966	     20.54652858	     12.26929302	     14.59529674	     29.58635899	     -3.24694912	    -10.62614663	     -5.88040091	      4.59326332	     -1.79322837	      2.19576947	     -6.16893290	      1.51117135	     11.77646355
      1.03766667	     -1.97175403	     -2.14420849	     -5.19203314	     -0.09791202	      0.87848065	      0.32844711	    -15.96148386	      6.26008651	      0.15804124	    -10.66148396	     20.54406834	     12.22791088	     14.62442532	     29.59380038	     -3.14023004	    -10.46569857	     -6.46281857	      4.38604482	     -1.85830079	      2.20937173	     -6.18201258	      1.26956801	     11.79494553
      1.04183333	     -2.01619756	     -1.98937068	     -5.37958012	     -0.09197361	      0.87768650	      0.32855319	    -15.93474488	      5.99292924	      0.24188215	    -11.43132099	     20.63071698	     12.38895705	     14.74289346	     29.65326662	     -3.02424300	    -10.27538082	     -7.05410927	      4.07205727	     -2.04285705	      2.26447324	     -6.08111059	      0.98422770	     11.89042567
      1.04600000	     -1.96564105	     -1.84010492	     -5.51081373	     -0.08594584	      0.87708761	      0.32856832	    -16.04197898	      5.73713524	      0.28950528	    -12.13150614	     20.51410085	     12.37368899	     14.80886159	     29.63903441	     -2.88747688	    -10.14054402	     -7.74951097	      3.78564770	     -2.19994665	      2.29203990	     -6.08627936	      0.72956306	     11.90987753
      1.05016667	     -1.92792809	     -1.61931676	     -5.65307367	     -0.07984321	      0.87653866	      0.32853432	    -16.07438659	      5.38235569	      0.21407704	    -12.94877141	     20.47454664	     12.65745782	     15.61711852	     29.56457075	     -2.64919071	     -9.84379231	     -8.31569796	      3.33646428	     -2.74540074	      2.64084998	     -6.07483616	      0.35524397	     11.97919936
      1.05433333	     -1.94623615	     -1.45990664	     -5.79244408	     -0.07375736	      0.87597491	      0.32855581	    -16.06079535	      5.12451324	      0.34244327	    -13.73746862	     20.30447168	     12.59390027	     15.77418618	     29.63438477	     -2.51426768	     -9.74594753	     -9.09513434	      2.92306481	     -2.93807079	      2.69706735	     -5.99812479	      0.09042846	     11.96867427
      1.05850000	     -1.92506782	     -1.27975114	     -5.88364116	     -0.06761433	      0.87550343	      0.32843689	    -16.05794796	      4.83261833	      0.29356842	    -14.58680890	     20.13581948	     12.72959806	     16.28453914	     29.63845887	     -2.30306622	     -9.47368538	     -9.83032102	      2.42920524	     -3.52057133	      2.86882089	     -5.95534412	     -0.18922965	     11.99853697
      1.06266667	     -1.84383156	     -1.08690293	     -5.98557940	     -0.06135700	      0.87521645	      0.32838312	    -16.13776860	      4.52933780	      0.33145770	    -15.39359080	     19.75723416	     12.62107735	     16.39447826	     29.59268318	     -2.10875022	     -9.44233364	    -10.64287124	      2.06793873	     -3.72222823	      2.89839446	     -5.95758791	     -0.51118624	     11.95976647
      1.06683333	     -1.83055828	     -0.86935941	     -6.06865734	     -0.05512395	      0.87488433	      0.32819785	    -16.06503636	      4.19054001	      0.25597643	    -16.34953113	     19.43613538	     12.78027200	     17.28237894	     29.55791759	     -1.82906602	     -9.06487665	    -11.30440994	      1.50463735	     -4.56800500	      3.13095042	     -5.90542254	     -0.85231415	     11.91500512
      1.07100000	     -1.77130574	     -0.66094162	     -6.13154570	     -0.04878689	      0.87468008	      0.32805782	    -16.07714313	      3.87668452	      0.24902279	    -17.21891822	     18.90682570	     12.63723931	     22.79005141	     29.54711873	     -1.59917727	     -9.02120639	    -12.14925236	      1.00787726	     -4.90961164	      4.43787113	     -5.87393129	     -1.20175788	     11.84745820
      1.07516667	     -1.68854125	     -0.47530105	     -6.18483763	     -0.04243790	      0.87457046	      0.32788177	    -16.08595209	      3.58506134	      0.23373168	    -18.15145603	     18.37438797	     12.53583097	     22.80751753	     29.52270785	     -1.38878512	     -8.99190131	    -13.03942068	      0.65172837	     -5.18904962	      4.43516711	     -5.87352055	     -1.49322899	     11.80288250
      1.07933333	     -1.70640415	     -0.26047388	     -6.22347429	     -0.03612260	      0.87437128	      0.32761853	    -15.90521380	      3.26690563	      0.17307130	    -19.23684532	     17.91484491	     12.57027851	     22.99356947	     29.56082551	     -1.10665429	     -8.70489341	    -13.80514987	      0.09239110	     -5.95638194	      4.43690484	     -5.75871314	     -1.82787328	     11.69188577
      1.08350000	     -1.65728717	     -0.04165088	     -6.24263109	     -0.02972778	      0.87433580	      0.32731778	    -15.79233315	      2.93608991	      0.07250710	    -20.31743319	     17.30950723	     12.57178710	     23.29743782	     29.53501783	     -0.81745092	     -8.51809620	    -14.60941547	     -0.33668764	     -6.54671677	      4.43593718	     -5.71330906	     -2.16698215	     11.57850315
      1.08766667	     -1.58199894	      0.18752368	     -6.24664216	     -0.02327985	      0.87439560	      0.32697460	    -15.68537282	      2.58564823	     -0.06687753	    -21.41740524	     16.54577138	     12.52455124	     27.28618419	     29.48336842	     -0.51127256	     -8.36646194	    -15.43463781	     -0.64660274	     -7.05257162	      4.39589693	     -5.69858357	     -2.52170327	     11.47707206
      1.09183333	     -1.55083831	      0.37421638	     -6.23865833	     -0.01688661	      0.87444262	      0.32662210	    -15.48657862	      2.29586048	     -0.16064120	    -22.60525745	     15.81308283	     12.48239512	     27.37445566	     29.49621710	     -0.25260815	     -8.20199621	    -16.29631879	     -0.94208480	     -7.51099320	      4.37972044	     -5.63458767	     -2.80910866	     11.34954704
      1.09600000	     -1.50334944	      0.58629688	     -6.21774116	     -0.01046095	      0.87457040	      0.32620546	    -15.26107343	      1.96597015	     -0.31638580	    -23.86148396	     15.02676985	     12.47658970	     27.56114724	     29.47146884	      0.04998403	     -8.01893391	    -17.12127964	     -1.19079246	     -8.00393622	      4.35001776	     -5.58514425	     -3.12519016	     11.20628771
      1.10016667	     -1.44159547	      0.80189293	     -6.18095325	     -0.00402136	      0.87476405	      0.32574187	    -15.02037052	      1.62462541	     -0.49931684	    -25.16009549	     14.19073602	     12.49922949	     27.94311516	     29.43035243	      0.36816047	     -7.82806092	    -17.95276394	     -1.35857233	     -8.53493011	      4.28978712	     -5.55559647	     -3.45986525	     11.04820487
      1.10433333	     -1.35838834	      1.02585787	     -6.14220839	      0.00242734	      0.87505304	      0.32525448	    -14.75925437	      1.26205938	     -0.70901366	    -26.51437714	     13.19952351	     12.43372508	     31.70321040	     29.33970354	      0.69838122	     -7.65774581	    -18.73698456	     -1.43808733	     -8.88055473	      3.66922297	     -5.55540186	     -3.78557270	     10.92744840
      1.10850000	     -1.31168682	      1.22279913	     -6.09067555	      0.00883271	      0.87532721	      0.32474041	    -14.41523348	      0.93165431	     -0.91065561	    -27.94082381	     12.21264024	     12.44197503	     31.75833462	     29.29834694	      1.00016409	     -7.48546791	    -19.54485539	     -1.47461872	     -9.20278935	      3.64819145	     -5.51201200	     -4.06596123	     10.76949804
      1.11266667	     -1.24231914	      1.44035975	     -6.02757927	      0.01523673	      0.87566907	      0.32417228	    -14.05481337	      0.56370184	     -1.15385650	    -29.42456992	     11.20365717	     12.47513833	     31.89978095	     29.21236111	      1.34087031	     -7.29571505	    -20.31230664	     -1.46529160	     -9.59658627	      3.60355847	     -5.50074873	     -4.38672086	     10.59220606
      1.11683333	     -1.11065562	      1.63849431	     -5.96366563	      0.02164845	      0.87615495	      0.32361956	    -13.74401512	      0.20675880	     -1.39329254	    -30.91512864	     10.07887767	     12.41863298	     31.94048683	     29.04522346	      1.65345573	     -7.18474573	    -21.07417640	     -1.29171093	     -9.77362732	      3.59119901	     -5.56725969	     -4.67197132	     10.50524499
      1.12100000	     -1.06188133	      1.88319688	     -5.89766965	      0.02797475	      0.87654899	      0.32294385	    -13.25511065	     -0.22567959	     -1.68767890	    -32.54653242	      9.00337044	     12.55539967	     32.41230011	     28.91353750	      2.05970624	     -6.87950503	    -21.69019103	     -1.23958540	    -10.30401669	      3.43633197	     -5.54452279	     -5.00271269	     10.22582557
      1.12516667	     -0.93716898	      2.07979052	     -5.81311694	      0.03431702	      0.87708749	      0.32233718	    -12.85849291	     -0.60047854	     -1.97531232	    -34.13103703	      7.77852378	     12.48302847	     32.46411953	     28.72605085	      2.37849593	     -6.78806491	    -22.39366844	     -1.00701884	    -10.39419300	      3.41834416	     -5.61136281	     -5.29149546	     10.14618720
      1.12933333	     -0.90697925	      2.31370053	     -5.73711757	      0.04054649	      0.87750358	      0.32165642	    -12.27377870	     -1.03457801	     -2.27435252	    -35.84516075	      6.59955470	     12.55726676	     32.84395779	     28.59460788	      2.76436759	     -6.54714326	    -22.97268979	     -0.85872705	    -10.76166261	      3.26778111	     -5.57746006	     -5.62184576	      9.87077969
      1.13350000	     -0.78895254	      2.52834419	     -5.65981006	      0.04679651	      0.87811111	      0.32100208	    -11.78818303	     -1.46092428	     -2.57521255	    -37.51149619	      5.27588876	     12.49538874	     32.94190987	     28.33670284	      3.11951327	     -6.40444531	    -23.50923970	     -0.56520222	    -10.82515176	      3.22290831	     -5.64480621	     -5.90599129	      9.76306025
      1.13766667	     -0.71479638	      2.75482565	     -5.57133070	      0.05295455	      0.87864616	      0.32028928	    -11.19930128	     -1.91872001	     -2.92599051	    -39.25277988	      3.99242192	     12.46558200	     33.14587174	     28.11510635	      3.49823756	     -6.24395507	    -24.00443692	     -0.33985903	    -11.07116547	      3.10797818	     -5.66568849	     -6.19886007	      9.53294714
      1.14183333	     -0.59023163	      2.95817025	     -5.49262426	      0.05907841	      0.87931566	      0.31962470	    -10.66030194	     -2.35594148	     -3.23470831	    -40.95318749	      2.60392007	     12.39576980	     33.20131492	     27.80114107	      3.84916040	     -6.10044091	    -24.44145331	      0.04818159	    -11.14128141	      3.06463088	     -5.76284246	     -6.48633234	      9.41154475
